<?xml version="1.0" encoding="utf-8"?>
<!-- Generator: Adobe Illustrator 28.3.0, SVG Export Plug-In . SVG Version: 6.00 Build 0)  -->
<svg version="1.1" id="Layer_1" xmlns="http://www.w3.org/2000/svg" xmlns:xlink="http://www.w3.org/1999/xlink" x="0px" y="0px"
	 viewBox="0 0 612 792" style="enable-background:new 0 0 612 792;" xml:space="preserve">
<style type="text/css">
	.st0{stroke:#000000;stroke-miterlimit:10;}
	.st1{fill:none;stroke:#000000;stroke-miterlimit:10;}
	.st2{fill:#FFFFFF;stroke:#000000;stroke-miterlimit:10;}
</style>
<circle class="st0" cx="459.05" cy="488.05" r="92.44"/>
<circle class="st0" cx="159.05" cy="485.72" r="92.44"/>
<g>
	<g>
		<circle cx="304.4" cy="310.72" r="181.4"/>
	</g>
	<g>
		<circle class="st1" cx="304.4" cy="310.72" r="181.4"/>
	</g>
</g>
<g>
	<g>
		<rect x="6.72" y="310.72" width="596.51" height="181.4"/>
	</g>
	<g>
		<rect x="6.72" y="310.72" class="st1" width="596.51" height="181.4"/>
	</g>
</g>
<rect x="47.42" y="340.95" class="st2" width="6.98" height="134.88"/>
<rect x="243.93" y="340.95" class="st2" width="6.98" height="134.88"/>
<rect x="196.26" y="340.95" class="st2" width="6.98" height="134.88"/>
<rect x="152.07" y="340.95" class="st2" width="6.98" height="134.88"/>
<rect x="116.02" y="340.95" class="st2" width="6.98" height="134.88"/>
<rect x="81.24" y="340.95" class="st2" width="6.98" height="134.88"/>
<rect x="500.91" y="340.95" class="st2" width="6.98" height="134.88"/>
<rect x="459.05" y="340.95" class="st2" width="6.98" height="134.88"/>
<rect x="412.53" y="340.95" class="st2" width="6.98" height="134.88"/>
<rect x="364.86" y="340.95" class="st2" width="6.98" height="134.88"/>
<rect x="319.51" y="340.95" class="st2" width="6.98" height="134.88"/>
<rect x="281.14" y="340.95" class="st2" width="6.98" height="134.88"/>
<rect x="547.42" y="340.95" class="st2" width="6.98" height="134.88"/>
</svg>
