<svg  version="1.1" xmlns="http://www.w3.org/2000/svg" viewBox="0 0 22 22">
   <circle cx="5" cy="13" r="2" stroke-width="1" stroke="#333" fill="none"/>
   <circle cx="17" cy="13" r="2" stroke-width="1" stroke="#333" fill="none"/>
   <line x1="4" y1="11" x2="18" y2="11" stroke="#333" stroke-linecap="round"/>
   <polyline points="18,11 18,6 15,4 7,4 4,6 4,11" stroke-linecap="round" stroke-linejoin="round" stroke-width="1" fill="none" stroke="#333"/>
   <polyline points="6,6 16,6 16,8 6,8 6,6" stroke-linecap="round" stroke-linejoin="round" stroke-width="1" fill="none" stroke="#333"/>
   <line x1="7" y1="9" x2="7" y2="10" stroke="#333" stroke-width=".5"/>
   <line x1="8" y1="9" x2="8" y2="10" stroke="#333" stroke-width=".5"/>
   <line x1="9" y1="9" x2="9" y2="10" stroke="#333" stroke-width=".5"/>
   <line x1="10" y1="9" x2="10" y2="10" stroke="#333" stroke-width=".5"/>
   <line x1="11" y1="9" x2="11" y2="10" stroke="#333" stroke-width=".5"/>
   <line x1="12" y1="9" x2="12" y2="10" stroke="#333" stroke-width=".5"/>
   <line x1="13" y1="9" x2="13" y2="10" stroke="#333" stroke-width=".5"/>
   <line x1="14" y1="9" x2="14" y2="10" stroke="#333" stroke-width=".5"/>
   <line x1="15" y1="9" x2="15" y2="10" stroke="#333" stroke-width=".5"/>
</svg>